<svg t="1735712457705" class="icon" viewBox="0 0 1024 1024" version="1.1" xmlns="http://www.w3.org/2000/svg" p-id="1716" width="64" height="64"><path d="M951.8 909.9L764.5 722.6l4.1-5c25.6-30.9 46-64.4 60.7-99.7 20.8-50 31.4-102.3 31.4-155.4 0-54.3-10.6-106.6-31.4-155.3-20.1-47.4-48.8-90-85.4-126.5-36.6-36.6-79.1-65.3-126.5-85.4-49.9-20.8-102.2-31.4-155.3-31.4-54.3 0-106.6 10.6-155.3 31.4-47.4 20.1-90 48.8-126.5 85.4-36.6 36.6-65.3 79.1-85.4 126.5-20.8 48.7-31.4 101-31.4 155.3S74.1 569.1 95 617.8c20.1 47.4 48.8 90 85.4 126.5 36.6 36.6 79.1 65.3 126.5 85.4 49.9 20.8 102.2 31.4 155.3 31.4 54.3 0 106.6-10.6 155.3-31.4 36-15.2 69.7-35.8 100.3-61.2l5-4.2 187.3 187.3c6.9 6.9 15.3 8.4 21.1 8.4 7.7 0 15.3-3 21.2-8.4 10.9-11.4 10.6-30.5-0.6-41.7zM462.2 802.1c-187.2 0-339.5-152.3-339.5-339.5S275 123 462.2 123s339.5 152.3 339.5 339.5-152.3 339.6-339.5 339.6z" fill="#1A1A1A" p-id="1717"></path><path d="M686.8 352.2c-11.9-10.4-30.5-9.3-41.3 2.5L515.9 502.2l-93.2-144.1c-5.1-7.7-13.1-12.4-21.8-12.9-0.6 0-1.3-0.1-1.9-0.1-8.8 0-16.7 3.4-21.9 9.5l-160.9 176c-10.8 11.8-9.9 30.3 2 41.3 5.3 4.8 12.2 7.5 19.4 7.5 8.6 0 16.2-3.3 21.3-9.4l135.4-148.6L488.6 566c5 7.5 13.6 12.4 22.4 12.9 9.2 0.5 18.1-3.2 23.9-9.9l154.4-176.4c5-5.3 7.6-12.1 7.4-19.3-0.3-8-3.9-15.6-9.9-21.1z" fill="#1A1A1A" p-id="1718"></path></svg>